<svg version="1.1" viewBox="0.0 0.0 960.0 540.0" fill="none" stroke="none" stroke-linecap="square" stroke-miterlimit="10" xmlns:xlink="http://www.w3.org/1999/xlink" xmlns="http://www.w3.org/2000/svg"><clipPath id="gdc3d3ec1b1_0_43.0"><path d="m0 0l960.0 0l0 540.0l-960.0 0l0 -540.0z" clip-rule="nonzero"/></clipPath><g clip-path="url(#gdc3d3ec1b1_0_43.0)"><path fill="#ffffff" d="m0 0l960.0 0l0 540.0l-960.0 0z" fill-rule="evenodd"/><path fill="#eeeeee" d="m6.0918636 51.395477l0 0c0 -3.444172 3.4195576 -6.2362213 7.6377954 -6.2362213l0 0c4.218238 0 7.6377954 2.7920494 7.6377954 6.2362213l0 0c0 3.444168 -3.4195576 6.2362213 -7.6377954 6.2362213l0 0c-4.218238 0 -7.6377954 -2.7920532 -7.6377954 -6.2362213z" fill-rule="evenodd"/><path stroke="#999999" stroke-width="2.0" stroke-linejoin="round" stroke-linecap="butt" d="m6.0918636 51.395477l0 0c0 -3.444172 3.4195576 -6.2362213 7.6377954 -6.2362213l0 0c4.218238 0 7.6377954 2.7920494 7.6377954 6.2362213l0 0c0 3.444168 -3.4195576 6.2362213 -7.6377954 6.2362213l0 0c-4.218238 0 -7.6377954 -2.7920532 -7.6377954 -6.2362213z" fill-rule="evenodd"/><path fill="#eeeeee" d="m43.46267 14.832021l0 0c0 -3.444169 3.4195595 -6.2362204 7.6377945 -6.2362204l0 0c4.218239 0 7.6377983 2.7920513 7.6377983 6.2362204l0 0c0 3.444169 -3.4195595 6.2362204 -7.6377983 6.2362204l0 0c-4.218235 0 -7.6377945 -2.7920513 -7.6377945 -6.2362204z" fill-rule="evenodd"/><path stroke="#999999" stroke-width="2.0" stroke-linejoin="round" stroke-linecap="butt" d="m43.46267 14.832021l0 0c0 -3.444169 3.4195595 -6.2362204 7.6377945 -6.2362204l0 0c4.218239 0 7.6377983 2.7920513 7.6377983 6.2362204l0 0c0 3.444169 -3.4195595 6.2362204 -7.6377983 6.2362204l0 0c-4.218235 0 -7.6377945 -2.7920513 -7.6377945 -6.2362204z" fill-rule="evenodd"/><path fill="#000000" fill-opacity="0.0" d="m19.130396 46.9858l26.582678 -27.74803" fill-rule="evenodd"/><path stroke="#999999" stroke-width="2.0" stroke-linejoin="round" stroke-linecap="butt" d="m19.130396 46.9858l26.582678 -27.74803" fill-rule="evenodd"/><path fill="#f4cccc" d="m43.46267 77.756485l0 0c0 -3.444168 3.4195595 -6.2362213 7.6377945 -6.2362213l0 0c4.218239 0 7.6377983 2.7920532 7.6377983 6.2362213l0 0c0 3.444168 -3.4195595 6.2362213 -7.6377983 6.2362213l0 0c-4.218235 0 -7.6377945 -2.7920532 -7.6377945 -6.2362213z" fill-rule="evenodd"/><path stroke="#999999" stroke-width="2.0" stroke-linejoin="round" stroke-linecap="butt" d="m43.46267 77.756485l0 0c0 -3.444168 3.4195595 -6.2362213 7.6377945 -6.2362213l0 0c4.218239 0 7.6377983 2.7920532 7.6377983 6.2362213l0 0c0 3.444168 -3.4195595 6.2362213 -7.6377983 6.2362213l0 0c-4.218235 0 -7.6377945 -2.7920532 -7.6377945 -6.2362213z" fill-rule="evenodd"/><path fill="#000000" fill-opacity="0.0" d="m19.130396 55.80515l26.582678 17.543308" fill-rule="evenodd"/><path stroke="#999999" stroke-width="2.0" stroke-linejoin="round" stroke-linecap="butt" d="m19.130396 55.80515l26.582678 17.543308" fill-rule="evenodd"/><path fill="#c9daf8" d="m83.45476 104.1175l0 0c0 -3.444168 3.4195557 -6.2362213 7.6377945 -6.2362213l0 0c4.218239 0 7.6377945 2.7920532 7.6377945 6.2362213l0 0c0 3.444168 -3.4195557 6.2362213 -7.6377945 6.2362213l0 0c-4.218239 0 -7.6377945 -2.7920532 -7.6377945 -6.2362213z" fill-rule="evenodd"/><path stroke="#999999" stroke-width="2.0" stroke-linejoin="round" stroke-linecap="butt" d="m83.45476 104.1175l0 0c0 -3.444168 3.4195557 -6.2362213 7.6377945 -6.2362213l0 0c4.218239 0 7.6377945 2.7920532 7.6377945 6.2362213l0 0c0 3.444168 -3.4195557 6.2362213 -7.6377945 6.2362213l0 0c-4.218239 0 -7.6377945 -2.7920532 -7.6377945 -6.2362213z" fill-rule="evenodd"/><path fill="#000000" fill-opacity="0.0" d="m56.5012 19.241695l34.582676 78.645676" fill-rule="evenodd"/><path stroke="#999999" stroke-width="2.0" stroke-linejoin="round" stroke-linecap="butt" d="m56.5012 19.241695l34.582676 78.645676" fill-rule="evenodd"/><path fill="#000000" fill-opacity="0.0" d="m56.5012 82.16616l29.19685 17.543304" fill-rule="evenodd"/><path stroke="#999999" stroke-width="2.0" stroke-linejoin="round" stroke-linecap="butt" d="m56.5012 82.16616l29.19685 17.543304" fill-rule="evenodd"/><path fill="#c9daf8" d="m83.45476 46.532845l0 0c0 -3.444168 3.4195557 -6.2362213 7.6377945 -6.2362213l0 0c4.218239 0 7.6377945 2.7920532 7.6377945 6.2362213l0 0c0 3.444168 -3.4195557 6.2362213 -7.6377945 6.2362213l0 0c-4.218239 0 -7.6377945 -2.7920532 -7.6377945 -6.2362213z" fill-rule="evenodd"/><path stroke="#999999" stroke-width="2.0" stroke-linejoin="round" stroke-linecap="butt" d="m83.45476 46.532845l0 0c0 -3.444168 3.4195557 -6.2362213 7.6377945 -6.2362213l0 0c4.218239 0 7.6377945 2.7920532 7.6377945 6.2362213l0 0c0 3.444168 -3.4195557 6.2362213 -7.6377945 6.2362213l0 0c-4.218239 0 -7.6377945 -2.7920532 -7.6377945 -6.2362213z" fill-rule="evenodd"/><path fill="#c9daf8" d="m8.332455 106.34817l0 0c0 -3.444168 3.4195566 -6.2362213 7.6377945 -6.2362213l0 0c4.218239 0 7.6377964 2.7920532 7.6377964 6.2362213l0 0c0 3.444168 -3.4195576 6.2362213 -7.6377964 6.2362213l0 0c-4.218238 0 -7.6377945 -2.7920532 -7.6377945 -6.2362213z" fill-rule="evenodd"/><path stroke="#999999" stroke-width="2.0" stroke-linejoin="round" stroke-linecap="butt" d="m8.332455 106.34817l0 0c0 -3.444168 3.4195566 -6.2362213 7.6377945 -6.2362213l0 0c4.218239 0 7.6377964 2.7920532 7.6377964 6.2362213l0 0c0 3.444168 -3.4195576 6.2362213 -7.6377964 6.2362213l0 0c-4.218238 0 -7.6377945 -2.7920532 -7.6377945 -6.2362213z" fill-rule="evenodd"/><path fill="#000000" fill-opacity="0.0" d="m85.69182 50.942516l-29.196854 22.393703" fill-rule="evenodd"/><path stroke="#999999" stroke-width="2.0" stroke-linejoin="round" stroke-linecap="butt" d="m85.69182 50.942516l-29.196854 22.393703" fill-rule="evenodd"/><path fill="#000000" fill-opacity="0.0" d="m45.69973 82.16616l-24.314962 19.779526" fill-rule="evenodd"/><path stroke="#999999" stroke-width="2.0" stroke-linejoin="round" stroke-linecap="butt" d="m45.69973 82.16616l-24.314962 19.779526" fill-rule="evenodd"/><path fill="#f4cccc" d="m848.7507 176.02887l0 0c0 -3.6963959 3.454773 -6.692917 7.7164917 -6.692917l0 0c4.26178 0 7.7165527 2.996521 7.7165527 6.692917l0 0c0 3.6963959 -3.454773 6.692917 -7.7165527 6.692917l0 0c-4.2617188 0 -7.7164917 -2.996521 -7.7164917 -6.692917z" fill-rule="evenodd"/><path stroke="#999999" stroke-width="2.0" stroke-linejoin="round" stroke-linecap="butt" d="m848.7507 176.02887l0 0c0 -3.6963959 3.454773 -6.692917 7.7164917 -6.692917l0 0c4.26178 0 7.7165527 2.996521 7.7165527 6.692917l0 0c0 3.6963959 -3.454773 6.692917 -7.7165527 6.692917l0 0c-4.2617188 0 -7.7164917 -2.996521 -7.7164917 -6.692917z" fill-rule="evenodd"/><path fill="#f4cccc" d="m864.1786 234.80013l0 0c0 -3.6963806 3.454773 -6.6929016 7.7164917 -6.6929016l0 0c4.2617188 0 7.7165527 2.996521 7.7165527 6.6929016l0 0c0 3.6963959 -3.454834 6.692917 -7.7165527 6.692917l0 0c-4.2617188 0 -7.7164917 -2.996521 -7.7164917 -6.692917z" fill-rule="evenodd"/><path stroke="#999999" stroke-width="2.0" stroke-linejoin="round" stroke-linecap="butt" d="m864.1786 234.80013l0 0c0 -3.6963806 3.454773 -6.6929016 7.7164917 -6.6929016l0 0c4.2617188 0 7.7165527 2.996521 7.7165527 6.6929016l0 0c0 3.6963959 -3.454834 6.692917 -7.7165527 6.692917l0 0c-4.2617188 0 -7.7164917 -2.996521 -7.7164917 -6.692917z" fill-rule="evenodd"/><path fill="#c9daf8" d="m902.1616 241.2878l0 0c0 -3.6963959 3.454834 -6.692917 7.7165527 -6.692917l0 0c4.2617188 0 7.7164917 2.996521 7.7164917 6.692917l0 0c0 3.6963959 -3.454773 6.692917 -7.7164917 6.692917l0 0c-4.2617188 0 -7.7165527 -2.996521 -7.7165527 -6.692917z" fill-rule="evenodd"/><path stroke="#999999" stroke-width="2.0" stroke-linejoin="round" stroke-linecap="butt" d="m902.1616 241.2878l0 0c0 -3.6963959 3.454834 -6.692917 7.7165527 -6.692917l0 0c4.2617188 0 7.7164917 2.996521 7.7164917 6.692917l0 0c0 3.6963959 -3.454773 6.692917 -7.7164917 6.692917l0 0c-4.2617188 0 -7.7165527 -2.996521 -7.7165527 -6.692917z" fill-rule="evenodd"/><path fill="#f4cccc" d="m939.62756 215.83534l0 0c0 -3.6963959 3.454834 -6.692917 7.7165527 -6.692917l0 0c4.2617188 0 7.7165527 2.996521 7.7165527 6.692917l0 0c0 3.6963806 -3.454834 6.6929016 -7.7165527 6.6929016l0 0c-4.2617188 0 -7.7165527 -2.996521 -7.7165527 -6.6929016z" fill-rule="evenodd"/><path stroke="#999999" stroke-width="2.0" stroke-linejoin="round" stroke-linecap="butt" d="m939.62756 215.83534l0 0c0 -3.6963959 3.454834 -6.692917 7.7165527 -6.692917l0 0c4.2617188 0 7.7165527 2.996521 7.7165527 6.692917l0 0c0 3.6963806 -3.454834 6.6929016 -7.7165527 6.6929016l0 0c-4.2617188 0 -7.7165527 -2.996521 -7.7165527 -6.6929016z" fill-rule="evenodd"/><path fill="#000000" fill-opacity="0.0" d="m861.9236 180.76147l42.48822 55.779526" fill-rule="evenodd"/><path stroke="#999999" stroke-width="2.0" stroke-linejoin="round" stroke-linecap="butt" d="m861.9236 180.76147l42.48822 55.779526" fill-rule="evenodd"/><path fill="#000000" fill-opacity="0.0" d="m861.9236 180.76147l79.968506 30.330704" fill-rule="evenodd"/><path stroke="#999999" stroke-width="2.0" stroke-linejoin="round" stroke-linecap="butt" d="m861.9236 180.76147l79.968506 30.330704" fill-rule="evenodd"/><path fill="#000000" fill-opacity="0.0" d="m877.3515 230.06752l61.448853 -52.377945" fill-rule="evenodd"/><path stroke="#999999" stroke-width="2.0" stroke-linejoin="round" stroke-linecap="butt" d="m877.3515 230.06752l61.448853 -52.377945" fill-rule="evenodd"/><path fill="#c9daf8" d="m905.4092 200.11252l0 0c0 -3.6963959 3.454773 -6.692917 7.7164917 -6.692917l0 0c4.2617188 0 7.7165527 2.996521 7.7165527 6.692917l0 0c0 3.6963959 -3.454834 6.692917 -7.7165527 6.692917l0 0c-4.2617188 0 -7.7164917 -2.996521 -7.7164917 -6.692917z" fill-rule="evenodd"/><path stroke="#999999" stroke-width="2.0" stroke-linejoin="round" stroke-linecap="butt" d="m905.4092 200.11252l0 0c0 -3.6963959 3.454773 -6.692917 7.7164917 -6.692917l0 0c4.2617188 0 7.7165527 2.996521 7.7165527 6.692917l0 0c0 3.6963959 -3.454834 6.692917 -7.7165527 6.692917l0 0c-4.2617188 0 -7.7164917 -2.996521 -7.7164917 -6.692917z" fill-rule="evenodd"/><path fill="#f3f3f3" d="m919.1826 39.751728l0 0c0 -4.6183167 4.1245728 -8.362204 9.212585 -8.362204l0 0c5.0879517 0 9.212585 3.743887 9.212585 8.362204l0 0c0 4.6183205 -4.124634 8.3622055 -9.212585 8.3622055l0 0c-5.0880127 0 -9.212585 -3.743885 -9.212585 -8.3622055z" fill-rule="evenodd"/><path stroke="#f3f3f3" stroke-width="2.0" stroke-linejoin="round" stroke-linecap="butt" d="m919.1826 39.751728l0 0c0 -4.6183167 4.1245728 -8.362204 9.212585 -8.362204l0 0c5.0879517 0 9.212585 3.743887 9.212585 8.362204l0 0c0 4.6183205 -4.124634 8.3622055 -9.212585 8.3622055l0 0c-5.0880127 0 -9.212585 -3.743885 -9.212585 -8.3622055z" fill-rule="evenodd"/><path fill="#f3f3f3" d="m890.46985 12.782152l0 0c0 -4.6183186 4.124634 -8.362205 9.2126465 -8.362205l0 0c5.0879517 0 9.212585 3.743886 9.212585 8.362205l0 0c0 4.6183186 -4.124634 8.3622055 -9.212585 8.3622055l0 0c-5.0880127 0 -9.2126465 -3.743887 -9.2126465 -8.3622055z" fill-rule="evenodd"/><path stroke="#f3f3f3" stroke-width="2.0" stroke-linejoin="round" stroke-linecap="butt" d="m890.46985 12.782152l0 0c0 -4.6183186 4.124634 -8.362205 9.2126465 -8.362205l0 0c5.0879517 0 9.212585 3.743886 9.212585 8.362205l0 0c0 4.6183186 -4.124634 8.3622055 -9.212585 8.3622055l0 0c-5.0880127 0 -9.2126465 -3.743887 -9.2126465 -8.3622055z" fill-rule="evenodd"/><path fill="#f3f3f3" d="m869.90967 40.575157l0 0c0 -4.6183205 4.124634 -8.3622055 9.212585 -8.3622055l0 0c5.0880127 0 9.212585 3.743885 9.212585 8.3622055l0 0c0 4.6183167 -4.1245728 8.3622055 -9.212585 8.3622055l0 0c-5.0879517 0 -9.212585 -3.7438889 -9.212585 -8.3622055z" fill-rule="evenodd"/><path stroke="#f3f3f3" stroke-width="2.0" stroke-linejoin="round" stroke-linecap="butt" d="m869.90967 40.575157l0 0c0 -4.6183205 4.124634 -8.3622055 9.212585 -8.3622055l0 0c5.0880127 0 9.212585 3.743885 9.212585 8.3622055l0 0c0 4.6183167 -4.1245728 8.3622055 -9.212585 8.3622055l0 0c-5.0879517 0 -9.212585 -3.7438889 -9.212585 -8.3622055z" fill-rule="evenodd"/><path fill="#f3f3f3" d="m856.7507 90.352455l0 0c0 -4.6183243 4.124634 -8.3622055 9.212585 -8.3622055l0 0c5.0879517 0 9.212585 3.7438812 9.212585 8.3622055l0 0c0 4.6183167 -4.124634 8.3622055 -9.212585 8.3622055l0 0c-5.0879517 0 -9.212585 -3.7438889 -9.212585 -8.3622055z" fill-rule="evenodd"/><path stroke="#f3f3f3" stroke-width="2.0" stroke-linejoin="round" stroke-linecap="butt" d="m856.7507 90.352455l0 0c0 -4.6183243 4.124634 -8.3622055 9.212585 -8.3622055l0 0c5.0879517 0 9.212585 3.7438812 9.212585 8.3622055l0 0c0 4.6183167 -4.124634 8.3622055 -9.212585 8.3622055l0 0c-5.0879517 0 -9.212585 -3.7438889 -9.212585 -8.3622055z" fill-rule="evenodd"/><path fill="#f3f3f3" d="m934.3089 73.87464l0 0c0 -4.6183167 4.124634 -8.3622055 9.2126465 -8.3622055l0 0c5.0879517 0 9.212585 3.7438889 9.212585 8.3622055l0 0c0 4.6183167 -4.124634 8.3622055 -9.212585 8.3622055l0 0c-5.0880127 0 -9.2126465 -3.7438889 -9.2126465 -8.3622055z" fill-rule="evenodd"/><path stroke="#f3f3f3" stroke-width="2.0" stroke-linejoin="round" stroke-linecap="butt" d="m934.3089 73.87464l0 0c0 -4.6183167 4.124634 -8.3622055 9.2126465 -8.3622055l0 0c5.0879517 0 9.212585 3.7438889 9.212585 8.3622055l0 0c0 4.6183167 -4.124634 8.3622055 -9.212585 8.3622055l0 0c-5.0880127 0 -9.2126465 -3.7438889 -9.2126465 -8.3622055z" fill-rule="evenodd"/><path fill="#000000" fill-opacity="0.0" d="m906.1968 18.695124l15.684998 15.149607" fill-rule="evenodd"/><path stroke="#f3f3f3" stroke-width="2.0" stroke-linejoin="round" stroke-linecap="butt" d="m906.1968 18.695124l15.684998 15.149607" fill-rule="evenodd"/><path fill="#000000" fill-opacity="0.0" d="m888.33484 40.575157l30.834656 -0.81889725" fill-rule="evenodd"/><path stroke="#f3f3f3" stroke-width="2.0" stroke-linejoin="round" stroke-linecap="butt" d="m888.33484 40.575157l30.834656 -0.81889725" fill-rule="evenodd"/><path fill="#000000" fill-opacity="0.0" d="m872.47754 84.43948l49.41736 -38.771656" fill-rule="evenodd"/><path stroke="#f3f3f3" stroke-width="2.0" stroke-linejoin="round" stroke-linecap="butt" d="m872.47754 84.43948l49.41736 -38.771656" fill-rule="evenodd"/><path fill="#000000" fill-opacity="0.0" d="m937.0072 67.96167l-8.598389 -19.842518" fill-rule="evenodd"/><path stroke="#f3f3f3" stroke-width="2.0" stroke-linejoin="round" stroke-linecap="butt" d="m937.0072 67.96167l-8.598389 -19.842518" fill-rule="evenodd"/><path fill="#f3f3f3" d="m100.47436 220.10371l0 0c0 -3.0875702 3.130478 -5.5905457 6.9921265 -5.5905457l0 0c3.861641 0 6.9921265 2.5029755 6.9921265 5.5905457l0 0c0 3.0875854 -3.1304855 5.590561 -6.9921265 5.590561l0 0c-3.8616486 0 -6.9921265 -2.5029755 -6.9921265 -5.590561z" fill-rule="evenodd"/><path stroke="#f3f3f3" stroke-width="2.0" stroke-linejoin="round" stroke-linecap="butt" d="m100.47436 220.10371l0 0c0 -3.0875702 3.130478 -5.5905457 6.9921265 -5.5905457l0 0c3.861641 0 6.9921265 2.5029755 6.9921265 5.5905457l0 0c0 3.0875854 -3.1304855 5.590561 -6.9921265 5.590561l0 0c-3.8616486 0 -6.9921265 -2.5029755 -6.9921265 -5.590561z" fill-rule="evenodd"/><path fill="#f3f3f3" d="m161.46617 197.22064l0 0c0 -3.0875702 3.130478 -5.5905457 6.9921265 -5.5905457l0 0c3.8616486 0 6.9921265 2.5029755 6.9921265 5.5905457l0 0c0 3.0875854 -3.130478 5.5905457 -6.9921265 5.5905457l0 0c-3.8616486 0 -6.9921265 -2.5029602 -6.9921265 -5.5905457z" fill-rule="evenodd"/><path stroke="#f3f3f3" stroke-width="2.0" stroke-linejoin="round" stroke-linecap="butt" d="m161.46617 197.22064l0 0c0 -3.0875702 3.130478 -5.5905457 6.9921265 -5.5905457l0 0c3.8616486 0 6.9921265 2.5029755 6.9921265 5.5905457l0 0c0 3.0875854 -3.130478 5.5905457 -6.9921265 5.5905457l0 0c-3.8616486 0 -6.9921265 -2.5029602 -6.9921265 -5.5905457z" fill-rule="evenodd"/><path fill="#f3f3f3" d="m106.30236 190.15486l0 0c0 -3.0875854 3.1304855 -5.590561 6.9921265 -5.590561l0 0c3.8616486 0 6.9921265 2.5029755 6.9921265 5.590561l0 0c0 3.0875702 -3.130478 5.5905457 -6.9921265 5.5905457l0 0c-3.861641 0 -6.9921265 -2.5029755 -6.9921265 -5.5905457z" fill-rule="evenodd"/><path stroke="#f3f3f3" stroke-width="2.0" stroke-linejoin="round" stroke-linecap="butt" d="m106.30236 190.15486l0 0c0 -3.0875854 3.1304855 -5.590561 6.9921265 -5.590561l0 0c3.8616486 0 6.9921265 2.5029755 6.9921265 5.590561l0 0c0 3.0875702 -3.130478 5.5905457 -6.9921265 5.5905457l0 0c-3.861641 0 -6.9921265 -2.5029755 -6.9921265 -5.5905457z" fill-rule="evenodd"/><path fill="#f3f3f3" d="m69.00518 211.87675l0 0c0 -3.0875702 3.1304855 -5.5905457 6.9921265 -5.5905457l0 0c3.8616486 0 6.9921265 2.5029755 6.9921265 5.5905457l0 0c0 3.0875702 -3.130478 5.5905457 -6.9921265 5.5905457l0 0c-3.861641 0 -6.9921265 -2.5029755 -6.9921265 -5.5905457z" fill-rule="evenodd"/><path stroke="#f3f3f3" stroke-width="2.0" stroke-linejoin="round" stroke-linecap="butt" d="m69.00518 211.87675l0 0c0 -3.0875702 3.1304855 -5.5905457 6.9921265 -5.5905457l0 0c3.8616486 0 6.9921265 2.5029755 6.9921265 5.5905457l0 0c0 3.0875702 -3.130478 5.5905457 -6.9921265 5.5905457l0 0c-3.861641 0 -6.9921265 -2.5029755 -6.9921265 -5.5905457z" fill-rule="evenodd"/><path fill="#f3f3f3" d="m161.46617 232.42l0 0c0 -3.0875854 3.130478 -5.590561 6.9921265 -5.590561l0 0c3.8616486 0 6.9921265 2.5029755 6.9921265 5.590561l0 0c0 3.0875702 -3.130478 5.5905457 -6.9921265 5.5905457l0 0c-3.8616486 0 -6.9921265 -2.5029755 -6.9921265 -5.5905457z" fill-rule="evenodd"/><path stroke="#f3f3f3" stroke-width="2.0" stroke-linejoin="round" stroke-linecap="butt" d="m161.46617 232.42l0 0c0 -3.0875854 3.130478 -5.590561 6.9921265 -5.590561l0 0c3.8616486 0 6.9921265 2.5029755 6.9921265 5.590561l0 0c0 3.0875702 -3.130478 5.5905457 -6.9921265 5.5905457l0 0c-3.8616486 0 -6.9921265 -2.5029755 -6.9921265 -5.5905457z" fill-rule="evenodd"/><path fill="#000000" fill-opacity="0.0" d="m163.51411 201.17377l-51.118103 14.992126" fill-rule="evenodd"/><path stroke="#f3f3f3" stroke-width="2.0" stroke-linejoin="round" stroke-linecap="butt" d="m163.51411 201.17377l-51.118103 14.992126" fill-rule="evenodd"/><path fill="#000000" fill-opacity="0.0" d="m113.29449 195.7454l-5.826767 18.771652" fill-rule="evenodd"/><path stroke="#f3f3f3" stroke-width="2.0" stroke-linejoin="round" stroke-linecap="butt" d="m113.29449 195.7454l-5.826767 18.771652" fill-rule="evenodd"/><path fill="#000000" fill-opacity="0.0" d="m82.98943 211.87675l17.480316 8.220474" fill-rule="evenodd"/><path stroke="#f3f3f3" stroke-width="2.0" stroke-linejoin="round" stroke-linecap="butt" d="m82.98943 211.87675l17.480316 8.220474" fill-rule="evenodd"/><path fill="#000000" fill-opacity="0.0" d="m161.46617 232.42l-49.07087 -8.37796" fill-rule="evenodd"/><path stroke="#f3f3f3" stroke-width="2.0" stroke-linejoin="round" stroke-linecap="butt" d="m161.46617 232.42l-49.07087 -8.37796" fill-rule="evenodd"/></g></svg>